HIERARCHY
ROOT RootJoint
{
    OFFSET   0.000000   0.000000   0.000000
    CHANNELS 6 Xposition Yposition Zposition Xrotation Yrotation Zrotation
    JOINT pelvis_lowerback
    {
        OFFSET   0.000000   0.093605   0.000000
        CHANNELS 3 Xrotation Yrotation Zrotation
        JOINT lowerback_torso
        {
            OFFSET   0.000000   0.100000   0.000000
            CHANNELS 3 Xrotation Yrotation Zrotation
            JOINT torso_head
            {
                OFFSET   0.000000   0.282350   0.000000
                CHANNELS 3 Xrotation Yrotation Zrotation
                End Site
                {
                    OFFSET   0.000000   0.192650   0.000000
                }
            }
            JOINT rTorso_Clavicle
            {
                OFFSET  -0.001000   0.157500   0.000000
                CHANNELS 3 Xrotation Yrotation Zrotation
                JOINT rShoulder
                {
                    OFFSET  -0.117647   0.000000   0.000000
                    CHANNELS 3 Xrotation Yrotation Zrotation
                    JOINT rElbow
                    {
                        OFFSET  -0.245000   0.000000   0.000000
                        CHANNELS 3 Xrotation Yrotation Zrotation
                        JOINT rWrist
                        {
                            OFFSET  -0.240000   0.000000   0.000000
                            CHANNELS 3 Xrotation Yrotation Zrotation
                            End Site
                            {
                                OFFSET  -0.116353  -0.002500   0.000000
                            }
                        }
                    }
                }
            }
            JOINT lTorso_Clavicle
            {
                OFFSET   0.001000   0.157500   0.000000
                CHANNELS 3 Xrotation Yrotation Zrotation
                JOINT lShoulder
                {
                    OFFSET   0.117647   0.000000   0.000000
                    CHANNELS 3 Xrotation Yrotation Zrotation
                    JOINT lElbow
                    {
                        OFFSET   0.245000   0.000000   0.000000
                        CHANNELS 3 Xrotation Yrotation Zrotation
                        JOINT lWrist
                        {
                            OFFSET   0.240000   0.000000   0.000000
                            CHANNELS 3 Xrotation Yrotation Zrotation
                            End Site
                            {
                                OFFSET   0.116353  -0.002500   0.000000
                            }
                        }
                    }
                }
            }
        }
    }
    JOINT rHip
    {
        OFFSET  -0.100000  -0.051395   0.000000
        CHANNELS 3 Xrotation Yrotation Zrotation
        JOINT rKnee
        {
            OFFSET   0.000000  -0.410000   0.000000
            CHANNELS 3 Xrotation Yrotation Zrotation
            JOINT rAnkle
            {
                OFFSET   0.000000  -0.390000   0.000000
                CHANNELS 3 Xrotation Yrotation Zrotation
                JOINT rToeJoint
                {
                    OFFSET   0.000000  -0.050000   0.130000
                    CHANNELS 3 Xrotation Yrotation Zrotation
                    End Site
                    {
                        OFFSET  -0.010000   0.002000   0.060000
                    }
                }
            }
        }
    }
    JOINT lHip
    {
        OFFSET   0.100000  -0.051395   0.000000
        CHANNELS 3 Xrotation Yrotation Zrotation
        JOINT lKnee
        {
            OFFSET   0.000000  -0.410000   0.000000
            CHANNELS 3 Xrotation Yrotation Zrotation
            JOINT lAnkle
            {
                OFFSET   0.000000  -0.390000   0.000000
                CHANNELS 3 Xrotation Yrotation Zrotation
                JOINT lToeJoint
                {
                    OFFSET   0.000000  -0.050000   0.130000
                    CHANNELS 3 Xrotation Yrotation Zrotation
                    End Site
                    {
                        OFFSET   0.010000   0.002000   0.060000
                    }
                }
            }
        }
    }
}
MOTION
Frames: 5
Frame Time:   0.008333
 -2.047719   0.840259   4.029515   1.193925   2.652261  -3.734943   1.378502  -0.655088   1.464078   0.112380  -0.696150   3.075374  -2.363062  -0.000212   3.373871   1.646922 -17.045432  11.125447  -0.218070  -7.885257  36.261898  -0.023485   8.868711   0.007475  -2.238225   4.592577  -4.060106   5.414428  16.414615  -9.213729   2.302825   4.443447 -47.111518  -0.043799 -23.921658  -0.022820   0.246830  -5.147656   6.348513 -11.203050 -13.543284 -23.798991  18.985006  -0.000468  -0.000346  -3.762225  -4.128515   9.055591  -3.334104  -0.000587   0.000546  -9.646538   4.752499  30.101138  19.693330  -0.000127   0.000718 -12.064964   4.474258  -3.976040   3.708622  -0.000030   0.000018
 -2.047176   0.840473   4.029841   1.181454   2.658655  -3.675041   1.280871  -0.703766   1.405091   0.183133  -0.754563   3.055677  -2.433660   0.042316   3.331188   1.825082 -17.072578  11.357043   0.333715  -7.868215  37.047692  -0.022525   8.408775   0.007819  -2.265083   4.512625  -4.022388   5.491892  16.275229  -9.335405   2.668961   4.173101 -47.893753  -0.040575 -23.350130  -0.021835   0.239544  -5.060138   6.172535 -11.108043 -13.540106 -23.859768  18.825425  -0.000419  -0.000315  -3.624641  -4.203086   9.010810  -3.390623  -0.000511   0.000462  -9.550840   4.717136  29.975075  19.672213  -0.000108   0.000591 -12.183873   4.434008  -3.948493   3.694433  -0.000026   0.000030
 -2.046628   0.840636   4.030158   1.162937   2.646379  -3.613829   1.192269  -0.743528   1.352722   0.254069  -0.804406   3.038674  -2.499997   0.084236   3.288846   1.990865 -17.091612  11.580957   0.849422  -7.843855  37.788892  -0.021372   7.977437   0.007874  -2.286427   4.417319  -3.966904   5.560901  16.138605  -9.447161   3.005137   3.912500 -48.623970  -0.037213 -22.817195  -0.020628   0.235149  -4.971315   5.987453 -11.021163 -13.535179 -23.923535  18.675532  -0.000371  -0.000260  -3.507265  -4.275469   8.971347  -3.413167  -0.000424   0.000382  -9.455581   4.682337  29.850361  19.677626  -0.000085   0.000468 -12.291470   4.393396  -3.922865   3.671886  -0.000025   0.000052
 -2.046085   0.840767   4.030479   1.142816   2.618776  -3.554405   1.108787  -0.778722   1.307311   0.320171  -0.849187   3.026760  -2.561154   0.123672   3.249231   2.143728 -17.107206  11.793955   1.329103  -7.813680  38.483449  -0.020069   7.575478   0.007675  -2.306381   4.325054  -3.905310   5.623986  16.010524  -9.550160   3.314526   3.664829 -49.302919  -0.033830 -22.320561  -0.019273   0.231794  -4.889441   5.809080 -10.942975 -13.530468 -23.986188  18.532218  -0.000326  -0.000195  -3.401711  -4.344650   8.935306  -3.414944  -0.000340   0.000307  -9.361627   4.651995  29.730466  19.696697  -0.000063   0.000356 -12.388243   4.355007  -3.900472   3.651655  -0.000024   0.000067
 -2.045550   0.840876   4.030806   1.122561   2.579642  -3.497311   1.028998  -0.811344   1.268527   0.380656  -0.890526   3.019797  -2.618071   0.160513   3.212528   2.284929 -17.120512  11.994235   1.775147  -7.779225  39.132565  -0.018678   7.201096   0.007303  -2.325149   4.239988  -3.843157   5.681997  15.891060  -9.643461   3.599554   3.430319 -49.933099  -0.030521 -21.857690  -0.017845   0.229270  -4.814887   5.642039 -10.872554 -13.525989 -24.046905  18.395150  -0.000285  -0.000128  -3.304723  -4.410379   8.901779  -3.403703  -0.000266   0.000237  -9.268949   4.626129  29.615594  19.723592  -0.000045   0.000258 -12.476446   4.318918  -3.880451   3.633605  -0.000022   0.000077
